<svg width="32" height="32" viewBox="0 0 32 32" xmlns="http://www.w3.org/2000/svg">
  <defs>
    <linearGradient id="cyber-gradient" x1="0%" y1="0%" x2="100%" y2="100%">
      <stop offset="0%" style="stop-color:#06b6d4;stop-opacity:1" />
      <stop offset="50%" style="stop-color:#6366f1;stop-opacity:1" />
      <stop offset="100%" style="stop-color:#8b5cf6;stop-opacity:1" />
    </linearGradient>
    <linearGradient id="shield-gradient" x1="0%" y1="0%" x2="100%" y2="100%">
      <stop offset="0%" style="stop-color:#0891b2;stop-opacity:1" />
      <stop offset="100%" style="stop-color:#4f46e5;stop-opacity:1" />
    </linearGradient>
  </defs>
  
  <!-- Fondo oscuro -->
  <rect width="32" height="32" rx="6" fill="#0f172a"/>
  
  <!-- Efecto de borde brillante -->
  <rect x="1" y="1" width="30" height="30" rx="5" fill="none" stroke="url(#cyber-gradient)" stroke-width="0.5" opacity="0.8"/>
  
  <!-- Shield principal -->
  <path d="M16 4 L22 7 L22 14 Q22 20 16 26 Q10 20 10 14 L10 7 Z" 
        fill="url(#shield-gradient)" 
        stroke="#06b6d4" 
        stroke-width="0.5" 
        opacity="0.9"/>
  
  <!-- Líneas internas cyberpunk -->
  <path d="M14 10 L18 10" stroke="#06b6d4" stroke-width="1.2" stroke-linecap="round"/>
  <path d="M13 13 L19 13" stroke="#06b6d4" stroke-width="1" stroke-linecap="round"/>
  <path d="M14 16 L18 16" stroke="#06b6d4" stroke-width="0.8" stroke-linecap="round"/>
  
  <!-- Punto central brillante -->
  <circle cx="16" cy="13" r="1.5" fill="#06b6d4" opacity="0.9">
    <animate attributeName="opacity" values="0.5;1;0.5" dur="2s" repeatCount="indefinite"/>
  </circle>
  
  <!-- Efectos de esquinas -->
  <path d="M6 6 L8 6 L8 8" stroke="#8b5cf6" stroke-width="1" fill="none" opacity="0.6"/>
  <path d="M24 6 L26 6 L26 8" stroke="#8b5cf6" stroke-width="1" fill="none" opacity="0.6"/>
  <path d="M6 26 L8 26 L8 24" stroke="#8b5cf6" stroke-width="1" fill="none" opacity="0.6"/>
  <path d="M24 26 L26 26 L26 24" stroke="#8b5cf6" stroke-width="1" fill="none" opacity="0.6"/>
</svg>